<?xml version="1.0" encoding="utf-8"?>
<!-- Generator: Adobe Illustrator 23.0.1, SVG Export Plug-In . SVG Version: 6.00 Build 0)  -->
<svg version="1.1" id="Camada_1" xmlns="http://www.w3.org/2000/svg" xmlns:xlink="http://www.w3.org/1999/xlink" x="0px" y="0px"
	 viewBox="0 0 461 461" style="enable-background:new 0 0 461 461;" xml:space="preserve">
<style type="text/css">
	.st0{fill:#22B573;}
	.st1{fill:#009245;}
</style>
<rect x="0.5" y="-0.5" class="st0" width="460" height="461"/>
<path class="st1" d="M331.8,75H132.2c-15,0-27.2,12.9-27.2,28.8v211.4c0,15.9,12.2,28.8,27.2,28.8h199.6c15,0,27.2-12.9,27.2-28.8
	V103.8C359,87.9,346.8,75,331.8,75z M243.2,284.8c0,26.2-14.5,38.1-35.7,38.1c-19.1,0-30.2-10.4-35.8-23.1l19.4-12.4
	c3.7,7,7.1,13,15.4,13c7.8,0,12.8-3.2,12.8-15.9v-85.9h23.9L243.2,284.8L243.2,284.8z M299.7,322.9c-22.2,0-36.5-11.2-43.5-25.8
	l19.4-11.9c5.1,8.8,11.8,15.4,23.5,15.4c9.9,0,16.2-5.2,16.2-12.5c0-8.6-6.5-11.7-17.4-16.8l-6-2.7c-17.2-7.7-28.6-17.5-28.6-38.1
	c0-19,13.7-33.4,34.9-33.4c15.2,0,26.1,5.6,33.9,20.2l-18.6,12.6c-4.1-7.7-8.5-10.8-15.4-10.8c-7,0-11.4,4.7-11.4,10.8
	c0,7.6,4.4,10.6,14.7,15.4l6,2.7c20.3,9.2,31.7,18.6,31.7,39.7C339.2,310.4,322.3,322.9,299.7,322.9L299.7,322.9z"/>
</svg>
