<?xml version="1.0" encoding="utf-8"?>
<!-- Generator: Adobe Illustrator 23.0.1, SVG Export Plug-In . SVG Version: 6.00 Build 0)  -->
<svg version="1.1" id="Camada_1" xmlns="http://www.w3.org/2000/svg" xmlns:xlink="http://www.w3.org/1999/xlink" x="0px" y="0px"
	 viewBox="0 0 461 461" style="enable-background:new 0 0 461 461;" xml:space="preserve">
<style type="text/css">
	.st0{fill:#ED1C24;}
	.st1{opacity:0.68;fill:#FFFFFF;}
</style>
<rect x="0.5" y="-0.5" class="st0" width="460" height="461"/>
<path class="st1" d="M288.9,237.3c6.6-4.2,15.8-7.8,15.8-7.8s-26.2,4.3-52.2,6.3c-31.9,2.4-66.1,2.9-83.3,0.8
	c-40.7-5,22.3-18.7,22.3-18.7s-24.4-1.5-54.5,11.8C101.5,245.6,225,252.8,288.9,237.3z M231.2,217.4c-12.9-26.5-56.2-49.8,0-90.6
	C301.3,76,265.3,43,265.3,43c14.5,52.5-51.2,68.4-74.9,101C174.2,166.3,198.3,190.2,231.2,217.4z M308.7,108
	c0.1,0-118.6,27.2-61.9,87.1c16.7,17.6-4.4,33.5-4.4,33.5s42.4-20.1,22.9-45.3C247.1,159.8,233.2,148.2,308.7,108z M304.6,276
	c-0.4,0.6-0.8,1.1-1.4,1.6c86.8-20.9,54.9-73.8,13.4-60.4c-2.2,0.8-4.2,2.1-5.5,3.9c2.4-0.8,4.9-1.4,7.4-1.9
	C339.5,215.2,369.6,245,304.6,276L304.6,276z M336.5,314.7c0,0,9.8,7.4-10.8,13.2c-39.2,10.9-162.9,14.2-197.3,0.4
	c-12.4-4.9,10.8-11.8,18.1-13.2c7.6-1.5,12-1.2,12-1.2c-13.7-8.9-88.8,17.5-38.2,25C258.6,359.4,372.4,329.5,336.5,314.7z
	 M185.2,289c-53.3,13.7,32.4,41.9,100.2,15.2c-6.6-2.4-13-5.2-19.1-8.6c-30.2,5.3-44.3,5.7-71.7,2.8C171.9,296,185.2,289,185.2,289z
	 M306.9,349.3c-53.3,9.2-119,8.1-157.9,2.2c0-0.1,8,6,49,8.4c62.4,3.7,158.2-2,160.4-29.1C358.4,330.9,354.1,341.1,306.9,349.3
	L306.9,349.3z M277.4,262.2c-40.1,7.1-63.3,6.9-92.6,4.1c-22.7-2.2-7.8-12.2-7.8-12.2c-58.7,17.9,32.6,38.1,114.7,16.1
	C286.3,268.5,281.5,265.8,277.4,262.2z"/>
</svg>
