<?xml version="1.0" encoding="utf-8"?>
<!-- Generator: Adobe Illustrator 23.0.1, SVG Export Plug-In . SVG Version: 6.00 Build 0)  -->
<svg version="1.1" id="Camada_1" xmlns="http://www.w3.org/2000/svg" xmlns:xlink="http://www.w3.org/1999/xlink" x="0px" y="0px"
	 viewBox="0 0 461 461" style="enable-background:new 0 0 461 461;" xml:space="preserve">
<style type="text/css">
	.st0{fill:#3584FF;}
	.st1{fill:#003DF4;}
</style>
<rect x="0.5" y="-0.5" class="st0" width="460" height="461"/>
<path class="st1" d="M5.5,325.6h36.7l8.7-44.8c41.1,0,66.5,3,90.1-19.1c26.1-24,32.9-66.7,14.3-88.1c-9.7-11.2-25.3-16.7-46.5-16.7
	H38.1L5.5,325.6z"/>
<path class="st0" d="M120,220.5c-7.9,40.5-35.8,36.3-70,36.3l13.7-70.6C101.6,186.2,127.4,182.1,120,220.5L120,220.5z"/>
<path class="st1" d="M184.9,151.7h36.5l-8.7,44.8c31.5,0,60.6-2.3,74.7,10.7c14.8,13.6,7.7,31-8.3,113.1h-37
	c15.4-79.4,18.3-86,12.7-92c-5.4-5.8-17.7-4.6-47.4-4.6l-18.8,96.6h-36.5L184.9,151.7L184.9,151.7z"/>
<path class="st1" d="M295.5,325.6h36.8l8.7-44.8c43.2,0,67,2.5,90.1-19.1c26.1-24,32.9-66.7,14.3-88.1
	c-9.7-11.2-25.3-16.7-46.5-16.7h-70.6L295.5,325.6z"/>
<path class="st0" d="M416.6,220.5c-8,41.1-36.7,36.3-70,36.3l13.7-70.6C398.4,186.2,424,182.1,416.6,220.5L416.6,220.5z"/>
</svg>
