<?xml version="1.0" encoding="utf-8"?>
<!-- Generator: Adobe Illustrator 23.0.1, SVG Export Plug-In . SVG Version: 6.00 Build 0)  -->
<svg version="1.1" id="Camada_1" xmlns="http://www.w3.org/2000/svg" xmlns:xlink="http://www.w3.org/1999/xlink" x="0px" y="0px"
	 viewBox="0 0 461 461" style="enable-background:new 0 0 461 461;" xml:space="preserve">
<style type="text/css">
	.st0{fill:#22B573;}
	.st1{fill:#006837;}
</style>
<rect x="0.5" y="-0.5" class="st0" width="460" height="461"/>
<path class="st1" d="M363.9,193.6c-4.8-20.3-13.8-35.6-33-35.6h-24.8v31.1c0,24.2-19.3,44.5-41.3,44.5h-66c-18.1,0-33,16.4-33,35.6
	v66.8c0,19,15.6,30.2,33,35.6c20.9,6.5,41,7.7,66,0c16.6-5.1,33-15.4,33-35.6v-26.7h-66v-8.9h99.1c19.2,0,26.3-14.2,33-35.6
	C370.9,242.9,370.6,221.7,363.9,193.6L363.9,193.6z M269,327.1c6.9,0,12.4,6,12.4,13.3c0,7.4-5.6,13.4-12.4,13.4
	c-6.8,0-12.4-6-12.4-13.4C256.6,333,262.2,327.1,269,327.1z M195.8,224.8h66c18.4,0,33-16.1,33-35.6v-66.9c0-19-15.1-33.3-33-36.5
	c-22.1-3.9-46.2-3.7-66,0.1c-27.9,5.3-33,16.2-33,36.5v26.7h66.1v8.9h-90.9c-19.2,0-36,12.3-41.3,35.6c-6.1,26.7-6.3,43.4,0,71.3
	c4.7,20.7,15.9,35.6,35.1,35.6h22.7v-32C154.5,245.2,173.3,224.8,195.8,224.8L195.8,224.8z M191.6,131.2c-6.9,0-12.4-6-12.4-13.3
	c0.1-7.4,5.6-13.4,12.4-13.4c6.8,0,12.4,6,12.4,13.4C204,125.3,198.5,131.2,191.6,131.2z"/>
</svg>
